<svg xmlns="http://www.w3.org/2000/svg" viewBox="0 0 389.46 398.22"><defs><style>.cls-1{fill:#414f52;}.cls-2{fill:#aaa9a6;}.cls-3,.cls-9{fill:#b7ce63;}.cls-4{fill:#a1bc57;}.cls-22,.cls-5{fill:#2e3d3f;}.cls-6{fill:#273539;}.cls-7{fill:#725b61;}.cls-8{fill:#90a546;}.cls-10,.cls-22,.cls-9{opacity:0.5;}.cls-10{fill:#cce075;}.cls-11{fill:#8c7479;}.cls-12{fill:#a58e92;}.cls-13{fill:#c4bfbc;}.cls-14{fill:#b2acaa;}.cls-15{fill:#bfa9ad;}.cls-16{fill:#e5e2e1;}.cls-17{fill:#fff;}.cls-18{fill:#82c0e0;}.cls-19{fill:#65b0ce;}.cls-20{fill:#49a5c1;}.cls-21{fill:#999;}.cls-23{fill:#e0e0e0;}.cls-24{fill:#727272;}.cls-25{fill:#7a646a;}.cls-26{fill:#ffef8f;}.cls-27{fill:#d6d6d6;}.cls-28{fill:#3d2d33;}.cls-29{fill:#afaaa8;}.cls-30{fill:#685258;}.cls-31{fill:#4c3c48;}.cls-32{fill:#999290;}</style></defs><title>Ativo 1</title><g id="Camada_2" data-name="Camada 2"><g id="Layer_1" data-name="Layer 1"><polygon class="cls-1" points="0 284.95 180.75 389.31 219.49 366.94 38.74 262.58 0 284.95"/><polygon class="cls-2" points="208.71 164.45 38.74 262.58 219.49 366.94 389.46 268.81 208.71 164.45"/><polygon class="cls-3" points="209.91 179.65 66.89 262.22 218.98 350.03 362 267.46 209.91 179.65"/><polygon class="cls-4" points="276.04 257.64 225.81 228.64 208.3 239.41 196.57 232.99 139.58 263.96 152 271.13 134.8 281.03 184.56 309.76 202.5 299.41 216.42 307.49 274.47 274.01 261.03 266.21 276.04 257.64"/><polygon class="cls-5" points="0 284.95 0 293.86 180.75 398.21 180.75 389.31 0 284.95"/><polygon class="cls-6" points="389.46 268.81 389.46 277.72 180.75 398.21 180.75 389.31 389.46 268.81"/><path class="cls-4" d="M133.09,239.5c0-2.76,4.2-5,9.39-5s9.4,2.24,9.4,5-4.2,5-9.4,5S133.09,242.26,133.09,239.5Z"/><path class="cls-7" d="M143.82,214.66h-2.67V239.5h0c0,.39.6.71,1.33.71s1.34-.32,1.34-.71h0Z"/><circle class="cls-8" cx="142.48" cy="209.6" r="13.87"/><circle class="cls-9" cx="139.99" cy="206.95" r="8.49"/><path class="cls-10" d="M141.15,205.2a3.67,3.67,0,1,1-3.67-3.67A3.66,3.66,0,0,1,141.15,205.2Z"/><path class="cls-4" d="M101.32,258.09c0-2.76,4.2-5,9.4-5s9.39,2.24,9.39,5-4.2,5-9.39,5S101.32,260.85,101.32,258.09Z"/><path class="cls-7" d="M112.05,233.25h-2.67v24.84h0c0,.39.6.71,1.34.71s1.33-.32,1.33-.71h0Z"/><circle class="cls-8" cx="110.72" cy="228.18" r="13.87"/><circle class="cls-9" cx="108.22" cy="225.53" r="8.49" transform="translate(-131.7 296.34) rotate(-80.81)"/><path class="cls-10" d="M109.38,223.78a3.67,3.67,0,1,1-3.67-3.66A3.67,3.67,0,0,1,109.38,223.78Z"/><polygon class="cls-11" points="217.12 233.6 217.12 300.66 262.33 274.95 262.33 233.6 217.12 233.6"/><polygon class="cls-12" points="148.31 233.6 148.31 280.51 185.48 301.97 185.48 233.6 148.31 233.6"/><polygon class="cls-12" points="202.44 233.6 202.44 292.18 217.12 300.66 217.12 233.6 202.44 233.6"/><polygon class="cls-11" points="185.48 233.6 185.48 301.97 202.44 292.18 202.44 233.6 185.48 233.6"/><polygon class="cls-13" points="145.02 29.8 145.02 233.97 159.71 242.45 159.71 38.28 145.02 29.8"/><polygon class="cls-14" points="268.74 24.67 251.78 34.46 251.78 238.63 268.74 228.84 268.74 24.67"/><polygon class="cls-11" points="268.74 24.67 251.78 34.46 251.78 40.07 268.74 30.28 268.74 24.67"/><polygon class="cls-11" points="145.02 29.8 145.02 35.83 159.71 44.31 159.71 38.28 145.02 29.8"/><polygon class="cls-15" points="266.47 42.94 251.78 34.46 268.74 24.67 226.01 0 209.05 9.79 194.36 1.31 145.02 29.8 159.71 38.28 142.75 48.07 185.48 72.74 202.44 62.95 217.12 71.43 266.47 42.94"/><polygon class="cls-11" points="209.19 14.83 226.19 5.04 262.93 26 265.24 24.67 226.19 2.38 209.19 12.18 194.51 3.7 149.06 29.8 151.36 31.13 194.51 6.35 209.19 14.83"/><polygon class="cls-12" points="262.93 26 226.19 5.04 209.19 14.83 194.51 6.35 151.36 31.13 163.74 38.28 161.45 39.6 163.74 40.93 149.09 49.39 185.48 70.37 202.44 60.58 217.12 69.06 260.57 44.1 248.52 36.95 250.79 35.65 248.52 34.3 262.93 26"/><polygon class="cls-11" points="163.74 38.28 146.79 48.07 149.09 49.39 163.74 40.93 163.74 38.28"/><polygon class="cls-11" points="260.57 44.1 262.85 42.8 248.52 34.3 248.52 36.95 260.57 44.1"/><polygon class="cls-13" points="266.47 42.94 217.12 71.43 217.12 275.6 266.47 247.11 266.47 42.94"/><polygon class="cls-16" points="142.75 48.07 142.75 252.24 185.48 276.91 185.48 72.74 142.75 48.07"/><polygon class="cls-16" points="202.44 62.95 202.44 267.12 217.12 275.6 217.12 71.43 202.44 62.95"/><polygon class="cls-13" points="185.48 72.74 202.44 62.95 202.44 267.12 185.48 276.91 185.48 72.74"/><polygon class="cls-11" points="266.47 42.94 217.12 71.43 217.12 78.22 266.47 49.73 266.47 42.94"/><polygon class="cls-12" points="142.75 48.07 142.75 54.53 185.48 79.2 185.48 72.74 142.75 48.07"/><polygon class="cls-12" points="202.44 62.95 202.44 69.45 217.12 78.22 217.12 71.43 202.44 62.95"/><polygon class="cls-11" points="185.48 72.74 202.44 62.95 202.44 69.41 185.48 79.2 185.48 72.74"/><polygon class="cls-11" points="223.62 33.02 210.03 40.88 230.54 52.86 244.13 45.02 223.62 33.02"/><polygon class="cls-13" points="242.63 44.8 230.62 51.74 230.62 45.96 242.63 39.03 242.63 44.8"/><polygon class="cls-16" points="212 40.95 230.62 51.74 230.62 45.96 212 35.17 212 40.95"/><polygon class="cls-17" points="224.01 28.23 212 35.17 230.62 45.96 242.63 39.03 224.01 28.23"/><polygon class="cls-13" points="240.82 38.93 232.04 44 232.04 42.12 240.82 37.05 240.82 38.93"/><polygon class="cls-16" points="215.2 34.24 232.04 44 232.04 42.12 215.2 32.36 215.2 34.24"/><polygon class="cls-17" points="223.89 27.29 215.2 32.36 232.04 42.12 240.82 37.05 223.89 27.29"/><polygon class="cls-11" points="178.9 24.7 186.99 29.38 174.78 36.51 166.7 31.84 178.9 24.7"/><polygon class="cls-16" points="185.26 29.5 174.81 35.56 174.81 32.31 185.26 26.26 185.26 29.5"/><polygon class="cls-13" points="168.06 31.66 174.81 35.56 174.81 32.31 168.06 28.42 168.06 31.66"/><polygon class="cls-17" points="178.52 22.36 185.26 26.26 174.81 32.31 168.06 28.42 178.52 22.36"/><polygon class="cls-11" points="195.96 14.57 204.05 19.25 191.85 26.38 183.76 21.71 195.96 14.57"/><polygon class="cls-16" points="202.33 19.37 191.88 25.43 191.88 22.18 202.33 16.13 202.33 19.37"/><polygon class="cls-13" points="185.13 21.53 191.88 25.43 191.88 22.18 185.13 18.29 185.13 21.53"/><polygon class="cls-17" points="195.58 12.22 202.33 16.13 191.88 22.18 185.13 18.29 195.58 12.22"/><polygon class="cls-12" points="142.75 77.39 185.48 102.21 185.48 84.8 142.75 59.98 142.75 77.39"/><polygon class="cls-11" points="202.44 74.95 185.48 84.8 185.48 102.21 202.44 92.36 202.44 74.95"/><polygon class="cls-17" points="143.46 76.82 184.47 100.66 184.47 85.28 143.46 61.45 143.46 76.82"/><polygon class="cls-18" points="152.94 67.64 152.94 81.73 163.14 87.65 163.14 73.57 152.94 67.64"/><polygon class="cls-18" points="144.09 62.5 144.09 76.58 152.36 81.39 152.36 67.31 144.09 62.5"/><polygon class="cls-18" points="163.72 73.91 163.72 87.99 173.92 93.92 173.92 79.84 163.72 73.91"/><polygon class="cls-18" points="183.91 85.64 174.5 80.17 174.5 94.25 183.91 99.72 183.91 85.64"/><polygon class="cls-17" points="189.6 84.36 199.35 78.78 199.35 92.8 189.6 98.38 189.6 84.36"/><polygon class="cls-19" points="190.22 84.67 198.73 79.72 198.73 92.45 190.22 97.39 190.22 84.67"/><polygon class="cls-20" points="152.36 67.31 152.36 81.39 152.94 81.73 152.94 67.64 152.36 67.31"/><polygon class="cls-20" points="163.14 73.57 163.14 87.65 163.72 87.99 163.72 73.91 163.14 73.57"/><polygon class="cls-20" points="173.92 79.84 173.92 93.92 174.5 94.25 174.5 80.17 173.92 79.84"/><polygon class="cls-11" points="266.47 72.3 217.18 100.94 217.18 83.53 266.47 54.9 266.47 72.3"/><polygon class="cls-12" points="202.44 74.95 217.18 83.53 217.18 100.94 202.44 92.36 202.44 74.95"/><polygon class="cls-17" points="262.96 73.46 221.94 97.29 221.94 81.92 262.96 58.08 262.96 73.46"/><polygon class="cls-19" points="253.47 64.28 253.47 78.36 243.27 84.29 243.27 70.21 253.47 64.28"/><polygon class="cls-19" points="262.33 59.14 262.33 73.22 254.05 78.03 254.05 63.94 262.33 59.14"/><polygon class="cls-19" points="242.69 70.55 242.69 84.63 232.49 90.55 232.49 76.47 242.69 70.55"/><polygon class="cls-19" points="222.5 82.28 231.91 76.81 231.91 90.89 222.5 96.36 222.5 82.28"/><polygon class="cls-17" points="214.68 83.73 204.94 78.14 204.94 92.17 214.68 97.75 214.68 83.73"/><polygon class="cls-18" points="214.06 84.03 205.56 79.09 205.56 91.82 214.06 96.76 214.06 84.03"/><polygon class="cls-20" points="254.05 63.94 254.05 78.03 253.47 78.36 253.47 64.28 254.05 63.94"/><polygon class="cls-20" points="243.27 70.21 243.27 84.29 242.69 84.63 242.69 70.55 243.27 70.21"/><polygon class="cls-20" points="232.49 76.47 232.49 90.55 231.91 90.89 231.91 76.81 232.49 76.47"/><polygon class="cls-12" points="142.75 99.49 185.48 124.31 185.48 106.91 142.75 82.08 142.75 99.49"/><polygon class="cls-11" points="202.44 97.06 185.48 106.91 185.48 124.31 202.44 114.46 202.44 97.06"/><polygon class="cls-17" points="143.46 98.93 184.47 122.76 184.47 107.39 143.46 83.55 143.46 98.93"/><polygon class="cls-18" points="152.94 89.75 152.94 103.83 163.14 109.76 163.14 95.68 152.94 89.75"/><polygon class="cls-18" points="144.09 84.6 144.09 98.69 152.36 103.49 152.36 89.41 144.09 84.6"/><polygon class="cls-18" points="163.72 96.01 163.72 110.09 173.92 116.02 173.92 101.94 163.72 96.01"/><polygon class="cls-18" points="183.91 107.75 174.5 102.28 174.5 116.36 183.91 121.83 183.91 107.75"/><polygon class="cls-17" points="189.6 106.47 199.35 100.88 199.35 114.9 189.6 120.49 189.6 106.47"/><polygon class="cls-19" points="190.22 106.77 198.73 101.83 198.73 114.56 190.22 119.5 190.22 106.77"/><polygon class="cls-20" points="152.36 89.41 152.36 103.49 152.94 103.83 152.94 89.75 152.36 89.41"/><polygon class="cls-20" points="163.14 95.68 163.14 109.76 163.72 110.09 163.72 96.01 163.14 95.68"/><polygon class="cls-20" points="173.92 101.94 173.92 116.02 174.5 116.36 174.5 102.28 173.92 101.94"/><polygon class="cls-11" points="266.47 94.41 217.18 123.04 217.18 105.64 266.47 77 266.47 94.41"/><polygon class="cls-12" points="202.44 97.06 217.18 105.64 217.18 123.04 202.44 114.46 202.44 97.06"/><polygon class="cls-17" points="262.96 95.56 221.94 119.4 221.94 104.02 262.96 80.19 262.96 95.56"/><polygon class="cls-19" points="253.47 86.39 253.47 100.47 243.27 106.39 243.27 92.31 253.47 86.39"/><polygon class="cls-19" points="262.33 81.24 262.33 95.32 254.05 100.13 254.05 86.05 262.33 81.24"/><polygon class="cls-19" points="242.69 92.65 242.69 106.73 232.49 112.66 232.49 98.58 242.69 92.65"/><polygon class="cls-19" points="222.5 104.38 231.91 98.91 231.91 112.99 222.5 118.46 222.5 104.38"/><polygon class="cls-17" points="214.68 105.83 204.94 100.25 204.94 114.27 214.68 119.85 214.68 105.83"/><polygon class="cls-18" points="214.06 106.14 205.56 101.19 205.56 113.92 214.06 118.86 214.06 106.14"/><polygon class="cls-20" points="254.05 86.05 254.05 100.13 253.47 100.47 253.47 86.39 254.05 86.05"/><polygon class="cls-20" points="243.27 92.31 243.27 106.39 242.69 106.73 242.69 92.65 243.27 92.31"/><polygon class="cls-20" points="232.49 98.58 232.49 112.66 231.91 112.99 231.91 98.91 232.49 98.58"/><polygon class="cls-12" points="142.75 122.07 185.48 146.89 185.48 129.49 142.75 104.67 142.75 122.07"/><polygon class="cls-11" points="202.44 119.64 185.48 129.49 185.48 146.89 202.44 137.04 202.44 119.64"/><polygon class="cls-17" points="143.46 121.51 184.47 145.34 184.47 129.97 143.46 106.13 143.46 121.51"/><polygon class="cls-18" points="152.94 112.33 152.94 126.41 163.14 132.34 163.14 118.26 152.94 112.33"/><polygon class="cls-18" points="144.09 107.19 144.09 121.27 152.36 126.08 152.36 111.99 144.09 107.19"/><polygon class="cls-18" points="163.72 118.59 163.72 132.68 173.92 138.6 173.92 124.52 163.72 118.59"/><polygon class="cls-18" points="183.91 130.32 174.5 124.86 174.5 138.94 183.91 144.41 183.91 130.32"/><polygon class="cls-17" points="189.6 129.04 199.35 123.46 199.35 137.48 189.6 143.07 189.6 129.04"/><polygon class="cls-19" points="190.22 129.35 198.73 124.41 198.73 137.14 190.22 142.08 190.22 129.35"/><polygon class="cls-20" points="152.36 111.99 152.36 126.08 152.94 126.41 152.94 112.33 152.36 111.99"/><polygon class="cls-20" points="163.14 118.26 163.14 132.34 163.72 132.68 163.72 118.59 163.14 118.26"/><polygon class="cls-20" points="173.92 124.52 173.92 138.6 174.5 138.94 174.5 124.86 173.92 124.52"/><polygon class="cls-11" points="266.47 116.99 217.18 145.62 217.18 128.22 266.47 99.58 266.47 116.99"/><polygon class="cls-12" points="202.44 119.64 217.18 128.22 217.18 145.62 202.44 137.04 202.44 119.64"/><polygon class="cls-17" points="262.96 118.14 221.94 141.98 221.94 126.6 262.96 102.77 262.96 118.14"/><polygon class="cls-19" points="253.47 108.97 253.47 123.05 243.27 128.97 243.27 114.89 253.47 108.97"/><polygon class="cls-19" points="262.33 103.82 262.33 117.9 254.05 122.71 254.05 108.63 262.33 103.82"/><polygon class="cls-19" points="242.69 115.23 242.69 129.31 232.49 135.24 232.49 121.16 242.69 115.23"/><polygon class="cls-19" points="222.5 126.96 231.91 121.49 231.91 135.57 222.5 141.04 222.5 126.96"/><polygon class="cls-17" points="214.68 128.41 204.94 122.83 204.94 136.85 214.68 142.43 214.68 128.41"/><polygon class="cls-18" points="214.06 128.72 205.56 123.77 205.56 136.5 214.06 141.44 214.06 128.72"/><polygon class="cls-20" points="254.05 108.63 254.05 122.71 253.47 123.05 253.47 108.97 254.05 108.63"/><polygon class="cls-20" points="243.27 114.89 243.27 128.97 242.69 129.31 242.69 115.23 243.27 114.89"/><polygon class="cls-20" points="232.49 121.16 232.49 135.24 231.91 135.57 231.91 121.49 232.49 121.16"/><polygon class="cls-12" points="142.75 144.18 185.48 169 185.48 151.59 142.75 126.77 142.75 144.18"/><polygon class="cls-11" points="202.44 141.74 185.48 151.59 185.48 169 202.44 159.15 202.44 141.74"/><polygon class="cls-17" points="143.46 143.61 184.47 167.44 184.47 152.07 143.46 128.24 143.46 143.61"/><polygon class="cls-18" points="152.94 134.43 152.94 148.52 163.14 154.44 163.14 140.36 152.94 134.43"/><polygon class="cls-18" points="144.09 129.29 144.09 143.37 152.36 148.18 152.36 134.1 144.09 129.29"/><polygon class="cls-18" points="163.72 140.7 163.72 154.78 173.92 160.71 173.92 146.62 163.72 140.7"/><polygon class="cls-18" points="183.91 152.43 174.5 146.96 174.5 161.04 183.91 166.51 183.91 152.43"/><polygon class="cls-17" points="189.6 151.15 199.35 145.57 199.35 159.59 189.6 165.17 189.6 151.15"/><polygon class="cls-19" points="190.22 151.45 198.73 146.51 198.73 159.24 190.22 164.18 190.22 151.45"/><polygon class="cls-20" points="152.36 134.1 152.36 148.18 152.94 148.52 152.94 134.43 152.36 134.1"/><polygon class="cls-20" points="163.14 140.36 163.14 154.44 163.72 154.78 163.72 140.7 163.14 140.36"/><polygon class="cls-20" points="173.92 146.62 173.92 160.71 174.5 161.04 174.5 146.96 173.92 146.62"/><polygon class="cls-11" points="266.47 139.09 217.18 167.73 217.18 150.32 266.47 121.69 266.47 139.09"/><polygon class="cls-12" points="202.44 141.74 217.18 150.32 217.18 167.73 202.44 159.15 202.44 141.74"/><polygon class="cls-17" points="262.96 140.25 221.94 164.08 221.94 148.71 262.96 124.87 262.96 140.25"/><polygon class="cls-19" points="253.47 131.07 253.47 145.15 243.27 151.08 243.27 137 253.47 131.07"/><polygon class="cls-19" points="262.33 125.92 262.33 140.01 254.05 144.81 254.05 130.73 262.33 125.92"/><polygon class="cls-19" points="242.69 137.33 242.69 151.41 232.49 157.34 232.49 143.26 242.69 137.33"/><polygon class="cls-19" points="222.5 149.06 231.91 143.6 231.91 157.68 222.5 163.15 222.5 149.06"/><polygon class="cls-17" points="214.68 150.51 204.94 144.93 204.94 158.95 214.68 164.54 214.68 150.51"/><polygon class="cls-18" points="214.06 150.82 205.56 145.88 205.56 158.6 214.06 163.55 214.06 150.82"/><polygon class="cls-20" points="254.05 130.73 254.05 144.81 253.47 145.15 253.47 131.07 254.05 130.73"/><polygon class="cls-20" points="243.27 137 243.27 151.08 242.69 151.41 242.69 137.33 243.27 137"/><polygon class="cls-20" points="232.49 143.26 232.49 157.34 231.91 157.68 231.91 143.6 232.49 143.26"/><polygon class="cls-12" points="142.75 166.7 185.48 191.52 185.48 174.11 142.75 149.29 142.75 166.7"/><polygon class="cls-11" points="202.44 164.26 185.48 174.11 185.48 191.52 202.44 181.67 202.44 164.26"/><polygon class="cls-17" points="143.46 166.13 184.47 189.97 184.47 174.59 143.46 150.76 143.46 166.13"/><polygon class="cls-18" points="152.94 156.95 152.94 171.04 163.14 176.96 163.14 162.88 152.94 156.95"/><polygon class="cls-18" points="144.09 151.81 144.09 165.89 152.36 170.7 152.36 156.62 144.09 151.81"/><polygon class="cls-18" points="163.72 163.22 163.72 177.3 173.92 183.23 173.92 169.15 163.72 163.22"/><polygon class="cls-18" points="183.91 174.95 174.5 169.48 174.5 183.56 183.91 189.03 183.91 174.95"/><polygon class="cls-17" points="189.6 173.67 199.35 168.09 199.35 182.11 189.6 187.69 189.6 173.67"/><polygon class="cls-19" points="190.22 173.97 198.73 169.03 198.73 181.76 190.22 186.7 190.22 173.97"/><polygon class="cls-20" points="152.36 156.62 152.36 170.7 152.94 171.04 152.94 156.95 152.36 156.62"/><polygon class="cls-20" points="163.14 162.88 163.14 176.96 163.72 177.3 163.72 163.22 163.14 162.88"/><polygon class="cls-20" points="173.92 169.15 173.92 183.23 174.5 183.56 174.5 169.48 173.92 169.15"/><polygon class="cls-11" points="266.47 161.61 217.18 190.25 217.18 172.84 266.47 144.21 266.47 161.61"/><polygon class="cls-12" points="202.44 164.26 217.18 172.84 217.18 190.25 202.44 181.67 202.44 164.26"/><polygon class="cls-17" points="262.96 162.77 221.94 186.6 221.94 171.23 262.96 147.39 262.96 162.77"/><polygon class="cls-19" points="253.47 153.59 253.47 167.67 243.27 173.6 243.27 159.52 253.47 153.59"/><polygon class="cls-19" points="262.33 148.44 262.33 162.53 254.05 167.34 254.05 153.25 262.33 148.44"/><polygon class="cls-19" points="242.69 159.85 242.69 173.94 232.49 179.86 232.49 165.78 242.69 159.85"/><polygon class="cls-19" points="222.5 171.59 231.91 166.12 231.91 180.2 222.5 185.67 222.5 171.59"/><polygon class="cls-17" points="214.68 173.04 204.94 167.45 204.94 181.47 214.68 187.06 214.68 173.04"/><polygon class="cls-18" points="214.06 173.34 205.56 168.4 205.56 181.13 214.06 186.07 214.06 173.34"/><polygon class="cls-20" points="254.05 153.25 254.05 167.34 253.47 167.67 253.47 153.59 254.05 153.25"/><polygon class="cls-20" points="243.27 159.52 243.27 173.6 242.69 173.94 242.69 159.85 243.27 159.52"/><polygon class="cls-20" points="232.49 165.78 232.49 179.86 231.91 180.2 231.91 166.12 232.49 165.78"/><polygon class="cls-12" points="142.75 188.8 185.48 213.62 185.48 196.22 142.75 171.39 142.75 188.8"/><polygon class="cls-11" points="202.44 186.37 185.48 196.22 185.48 213.62 202.44 203.77 202.44 186.37"/><polygon class="cls-17" points="143.46 188.24 184.47 212.07 184.47 196.69 143.46 172.86 143.46 188.24"/><polygon class="cls-18" points="152.94 179.06 152.94 193.14 163.14 199.07 163.14 184.99 152.94 179.06"/><polygon class="cls-18" points="144.09 173.91 144.09 188 152.36 192.8 152.36 178.72 144.09 173.91"/><polygon class="cls-18" points="163.72 185.32 163.72 199.4 173.92 205.33 173.92 191.25 163.72 185.32"/><polygon class="cls-18" points="183.91 197.05 174.5 191.59 174.5 205.67 183.91 211.14 183.91 197.05"/><polygon class="cls-17" points="189.6 195.77 199.35 190.19 199.35 204.21 189.6 209.8 189.6 195.77"/><polygon class="cls-19" points="190.22 196.08 198.73 191.14 198.73 203.87 190.22 208.81 190.22 196.08"/><polygon class="cls-20" points="152.36 178.72 152.36 192.8 152.94 193.14 152.94 179.06 152.36 178.72"/><polygon class="cls-20" points="163.14 184.99 163.14 199.07 163.72 199.4 163.72 185.32 163.14 184.99"/><polygon class="cls-20" points="173.92 191.25 173.92 205.33 174.5 205.67 174.5 191.59 173.92 191.25"/><polygon class="cls-11" points="266.47 183.72 217.18 212.35 217.18 194.95 266.47 166.31 266.47 183.72"/><polygon class="cls-12" points="202.44 186.37 217.18 194.95 217.18 212.35 202.44 203.77 202.44 186.37"/><polygon class="cls-17" points="262.96 184.87 221.94 208.71 221.94 193.33 262.96 169.5 262.96 184.87"/><polygon class="cls-19" points="253.47 175.69 253.47 189.78 243.27 195.7 243.27 181.62 253.47 175.69"/><polygon class="cls-19" points="262.33 170.55 262.33 184.63 254.05 189.44 254.05 175.36 262.33 170.55"/><polygon class="cls-19" points="242.69 181.96 242.69 196.04 232.49 201.97 232.49 187.88 242.69 181.96"/><polygon class="cls-19" points="222.5 193.69 231.91 188.22 231.91 202.3 222.5 207.77 222.5 193.69"/><polygon class="cls-17" points="214.68 195.14 204.94 189.56 204.94 203.58 214.68 209.16 214.68 195.14"/><polygon class="cls-18" points="214.06 195.44 205.56 190.5 205.56 203.23 214.06 208.17 214.06 195.44"/><polygon class="cls-20" points="254.05 175.36 254.05 189.44 253.47 189.78 253.47 175.69 254.05 175.36"/><polygon class="cls-20" points="243.27 181.62 243.27 195.7 242.69 196.04 242.69 181.96 243.27 181.62"/><polygon class="cls-20" points="232.49 187.88 232.49 201.97 231.91 202.3 231.91 188.22 232.49 187.88"/><polygon class="cls-12" points="142.75 211.38 185.48 236.2 185.48 218.8 142.75 193.97 142.75 211.38"/><polygon class="cls-11" points="202.44 208.95 185.48 218.8 185.48 236.2 202.44 226.35 202.44 208.95"/><polygon class="cls-17" points="143.46 210.82 184.47 234.65 184.47 219.28 143.46 195.44 143.46 210.82"/><polygon class="cls-18" points="152.94 201.64 152.94 215.72 163.14 221.65 163.14 207.57 152.94 201.64"/><polygon class="cls-18" points="144.09 196.49 144.09 210.58 152.36 215.38 152.36 201.3 144.09 196.49"/><polygon class="cls-18" points="163.72 207.9 163.72 221.99 173.92 227.91 173.92 213.83 163.72 207.9"/><polygon class="cls-18" points="183.91 219.63 174.5 214.17 174.5 228.25 183.91 233.72 183.91 219.63"/><polygon class="cls-17" points="189.6 218.35 199.35 212.77 199.35 226.79 189.6 232.38 189.6 218.35"/><polygon class="cls-19" points="190.22 218.66 198.73 213.72 198.73 226.44 190.22 231.39 190.22 218.66"/><polygon class="cls-20" points="152.36 201.3 152.36 215.38 152.94 215.72 152.94 201.64 152.36 201.3"/><polygon class="cls-20" points="163.14 207.57 163.14 221.65 163.72 221.99 163.72 207.9 163.14 207.57"/><polygon class="cls-20" points="173.92 213.83 173.92 227.91 174.5 228.25 174.5 214.17 173.92 213.83"/><polygon class="cls-11" points="266.47 206.3 217.18 234.93 217.18 217.53 266.47 188.89 266.47 206.3"/><polygon class="cls-12" points="202.44 208.95 217.18 217.53 217.18 234.93 202.44 226.35 202.44 208.95"/><polygon class="cls-17" points="262.96 207.45 221.94 231.29 221.94 215.91 262.96 192.08 262.96 207.45"/><polygon class="cls-19" points="253.47 198.28 253.47 212.36 243.27 218.28 243.27 204.2 253.47 198.28"/><polygon class="cls-19" points="262.33 193.13 262.33 207.21 254.05 212.02 254.05 197.94 262.33 193.13"/><polygon class="cls-19" points="242.69 204.54 242.69 218.62 232.49 224.55 232.49 210.47 242.69 204.54"/><polygon class="cls-19" points="222.5 216.27 231.91 210.8 231.91 224.88 222.5 230.35 222.5 216.27"/><polygon class="cls-17" points="214.68 217.72 204.94 212.14 204.94 226.16 214.68 231.74 214.68 217.72"/><polygon class="cls-18" points="214.06 218.02 205.56 213.08 205.56 225.81 214.06 230.75 214.06 218.02"/><polygon class="cls-20" points="254.05 197.94 254.05 212.02 253.47 212.36 253.47 198.28 254.05 197.94"/><polygon class="cls-20" points="243.27 204.2 243.27 218.28 242.69 218.62 242.69 204.54 243.27 204.2"/><polygon class="cls-20" points="232.49 210.47 232.49 224.55 231.91 224.88 231.91 210.8 232.49 210.47"/><polygon class="cls-12" points="142.75 233.49 185.48 258.31 185.48 240.9 142.75 216.08 142.75 233.49"/><polygon class="cls-11" points="202.44 231.05 185.48 240.9 185.48 258.31 202.44 248.46 202.44 231.05"/><polygon class="cls-17" points="143.46 232.92 184.47 256.75 184.47 241.38 143.46 217.54 143.46 232.92"/><polygon class="cls-18" points="152.94 223.74 152.94 237.82 163.14 243.75 163.14 229.67 152.94 223.74"/><polygon class="cls-18" points="144.09 218.6 144.09 232.68 152.36 237.49 152.36 223.41 144.09 218.6"/><polygon class="cls-18" points="163.72 230.01 163.72 244.09 173.92 250.02 173.92 235.93 163.72 230.01"/><polygon class="cls-18" points="183.91 241.74 174.5 236.27 174.5 250.35 183.91 255.82 183.91 241.74"/><polygon class="cls-17" points="189.6 240.46 199.35 234.88 199.35 248.9 189.6 254.48 189.6 240.46"/><polygon class="cls-19" points="190.22 240.76 198.73 235.82 198.73 248.55 190.22 253.49 190.22 240.76"/><polygon class="cls-20" points="152.36 223.41 152.36 237.49 152.94 237.82 152.94 223.74 152.36 223.41"/><polygon class="cls-20" points="163.14 229.67 163.14 243.75 163.72 244.09 163.72 230.01 163.14 229.67"/><polygon class="cls-20" points="173.92 235.93 173.92 250.02 174.5 250.35 174.5 236.27 173.92 235.93"/><polygon class="cls-11" points="266.47 228.4 217.18 257.04 217.18 239.63 266.47 210.99 266.47 228.4"/><polygon class="cls-12" points="202.44 231.05 217.18 239.63 217.18 257.04 202.44 248.46 202.44 231.05"/><polygon class="cls-17" points="262.96 229.56 221.94 253.39 221.94 238.01 262.96 214.18 262.96 229.56"/><polygon class="cls-19" points="253.47 220.38 253.47 234.46 243.27 240.39 243.27 226.31 253.47 220.38"/><polygon class="cls-19" points="262.33 215.23 262.33 229.32 254.05 234.12 254.05 220.04 262.33 215.23"/><polygon class="cls-19" points="242.69 226.64 242.69 240.72 232.49 246.65 232.49 232.57 242.69 226.64"/><polygon class="cls-19" points="222.5 238.37 231.91 232.91 231.91 246.99 222.5 252.46 222.5 238.37"/><polygon class="cls-17" points="214.68 239.82 204.94 234.24 204.94 248.26 214.68 253.85 214.68 239.82"/><polygon class="cls-18" points="214.06 240.13 205.56 235.19 205.56 247.91 214.06 252.86 214.06 240.13"/><polygon class="cls-20" points="254.05 220.04 254.05 234.12 253.47 234.46 253.47 220.38 254.05 220.04"/><polygon class="cls-20" points="243.27 226.31 243.27 240.39 242.69 240.72 242.69 226.64 243.27 226.31"/><polygon class="cls-20" points="232.49 232.57 232.49 246.65 231.91 246.99 231.91 232.91 232.49 232.57"/><polygon class="cls-18" points="164.69 269.63 156.18 264.69 156.18 284.93 164.69 289.87 164.69 269.63"/><polygon class="cls-18" points="174.65 275.43 166.15 270.48 166.15 290.72 174.65 295.67 174.65 275.43"/><path class="cls-4" d="M315.63,268.66c0-2.76,4.21-5,9.4-5s9.4,2.24,9.4,5-4.21,5-9.4,5S315.63,271.42,315.63,268.66Z"/><path class="cls-7" d="M326.37,243.82H323.7v24.84h0c0,.39.59.71,1.33.71s1.34-.32,1.34-.71h0Z"/><circle class="cls-8" cx="325.03" cy="238.76" r="13.87" transform="translate(37.49 521.55) rotate(-80.82)"/><circle class="cls-9" cx="322.54" cy="236.11" r="8.49"/><path class="cls-10" d="M323.7,234.36a3.67,3.67,0,1,1-3.67-3.67A3.67,3.67,0,0,1,323.7,234.36Z"/><path class="cls-4" d="M281.86,287.93c0-2.76,4.21-5,9.4-5s9.4,2.24,9.4,5-4.21,5-9.4,5S281.86,290.69,281.86,287.93Z"/><path class="cls-7" d="M292.6,263.09h-2.68v24.84h0c0,.39.6.71,1.34.71s1.34-.32,1.34-.71h0Z"/><circle class="cls-8" cx="291.26" cy="258.03" r="13.87"/><circle class="cls-9" cx="288.77" cy="255.38" r="8.49" transform="translate(-27.96 475.13) rotate(-76.24)"/><path class="cls-10" d="M289.92,253.63a3.67,3.67,0,1,1-3.66-3.67A3.66,3.66,0,0,1,289.92,253.63Z"/><path class="cls-4" d="M249.42,306.32c0-2.76,4.21-5,9.4-5s9.4,2.24,9.4,5-4.21,5-9.4,5S249.42,309.08,249.42,306.32Z"/><path class="cls-7" d="M260.16,281.48h-2.68v24.85h0c0,.39.6.71,1.34.71s1.34-.32,1.34-.71h0Z"/><circle class="cls-8" cx="258.82" cy="276.42" r="13.87"/><circle class="cls-9" cx="256.33" cy="273.77" r="8.49" transform="translate(-79.41 106.63) rotate(-20.42)"/><path class="cls-10" d="M257.48,272a3.67,3.67,0,1,1-3.66-3.67A3.66,3.66,0,0,1,257.48,272Z"/><path class="cls-4" d="M217.65,324.91c0-2.76,4.21-5,9.4-5s9.4,2.24,9.4,5-4.21,5-9.4,5S217.65,327.67,217.65,324.91Z"/><path class="cls-7" d="M228.39,300.07h-2.68v24.84h0c0,.39.6.71,1.34.71s1.34-.32,1.34-.71h0Z"/><circle class="cls-8" cx="227.05" cy="295.01" r="13.87"/><circle class="cls-9" cx="224.56" cy="292.35" r="8.49" transform="translate(-140.95 244.42) rotate(-45)"/><circle class="cls-10" cx="222.05" cy="290.6" r="3.67"/><polygon class="cls-17" points="214.89 369.59 216.13 368.88 35.38 264.52 34.14 265.24 214.89 369.59"/><polygon class="cls-16" points="219.49 365.94 220.72 365.23 39.98 260.87 38.74 261.59 219.49 365.94"/><polygon class="cls-13" points="38.74 261.59 38.74 262.58 219.49 366.94 219.49 365.94 38.74 261.59"/><polygon class="cls-6" points="220.72 365.23 219.49 365.94 219.49 366.94 220.72 366.23 220.72 365.23"/><polygon class="cls-2" points="127.05 301.97 145.5 312.56 167.56 299.78 149.11 289.19 127.05 301.97"/><polygon class="cls-21" points="156.2 285.08 149.11 289.19 167.41 299.86 174.65 295.67 156.2 285.08"/><polygon class="cls-22" points="52.05 285.95 37.28 294.45 66.07 311.09 81.09 302.43 52.05 285.95"/><polygon class="cls-4" points="152.58 310.02 165.75 317.76 171 314.78 157.69 307.03 152.58 310.02"/><polygon class="cls-16" points="169.83 311.23 169.83 314.73 169.44 314.97 169.44 311.46 169.83 311.23"/><polygon class="cls-17" points="169.05 311.31 169.05 314.73 169.44 314.97 169.44 311.54 169.05 311.31"/><polygon class="cls-16" points="166.09 313.4 166.09 316.9 165.7 317.14 165.7 313.63 166.09 313.4"/><polygon class="cls-17" points="165.31 313.48 165.31 316.9 165.7 317.14 165.7 313.71 165.31 313.48"/><polygon class="cls-23" points="158.09 304.38 158.09 307.88 157.69 308.11 157.69 304.6 158.09 304.38"/><polygon class="cls-24" points="157.3 304.46 157.3 307.88 157.69 308.11 157.69 304.68 157.3 304.46"/><polygon class="cls-16" points="154.34 306.58 154.34 310.08 153.95 310.32 153.95 306.81 154.34 306.58"/><polygon class="cls-17" points="153.56 306.66 153.56 310.08 153.95 310.32 153.95 306.89 153.56 306.66"/><polygon class="cls-12" points="165.7 313.24 169.83 310.84 157.68 303.81 153.56 306.19 165.7 313.24"/><polygon class="cls-25" points="169.83 310.84 169.83 311.41 165.7 313.81 165.7 313.24 169.83 310.84"/><polygon class="cls-11" points="165.7 313.24 165.7 313.81 153.56 306.76 153.56 306.19 165.7 313.24"/><polygon class="cls-25" points="168.67 311.52 168.5 311.63 156.31 304.61 156.51 304.49 168.67 311.52"/><polygon class="cls-25" points="167.15 312.41 166.99 312.52 154.79 305.49 154.99 305.37 167.15 312.41"/><polygon class="cls-4" points="118.13 290.36 131.3 298.11 136.55 295.13 123.24 287.37 118.13 290.36"/><polygon class="cls-16" points="135.38 291.58 135.38 295.08 134.99 295.31 134.99 291.81 135.38 291.58"/><polygon class="cls-17" points="134.6 291.66 134.6 295.08 134.99 295.31 134.99 291.88 134.6 291.66"/><polygon class="cls-16" points="131.64 293.74 131.64 297.24 131.25 297.48 131.25 293.97 131.64 293.74"/><polygon class="cls-17" points="130.86 293.82 130.86 297.24 131.25 297.48 131.25 294.05 130.86 293.82"/><polygon class="cls-23" points="123.63 284.72 123.63 288.22 123.24 288.46 123.24 284.95 123.63 284.72"/><polygon class="cls-24" points="122.85 284.8 122.85 288.22 123.24 288.46 123.24 285.03 122.85 284.8"/><polygon class="cls-16" points="119.89 286.93 119.89 290.43 119.5 290.66 119.5 287.15 119.89 286.93"/><polygon class="cls-17" points="119.11 287.01 119.11 290.43 119.5 290.66 119.5 287.23 119.11 287.01"/><polygon class="cls-12" points="131.25 293.58 135.38 291.19 123.23 284.15 119.11 286.54 131.25 293.58"/><polygon class="cls-25" points="135.38 291.19 135.38 291.75 131.25 294.15 131.25 293.58 135.38 291.19"/><polygon class="cls-11" points="131.25 293.58 131.25 294.15 119.11 287.11 119.11 286.54 131.25 293.58"/><polygon class="cls-25" points="134.22 291.87 134.05 291.98 121.86 284.95 122.06 284.83 134.22 291.87"/><polygon class="cls-25" points="132.69 292.75 132.54 292.87 120.33 285.83 120.54 285.71 132.69 292.75"/><polygon class="cls-20" points="164.69 269.63 164.69 289.87 166.15 290.72 166.15 270.48 164.69 269.63"/><polygon class="cls-17" points="174.65 275.43 156.18 264.69 156.2 285.08 156.93 285.5 156.92 266 173.92 275.88 173.92 295.24 174.65 295.67 174.65 275.43"/><rect class="cls-13" x="49.73" y="260.73" width="7.09" height="1"/><path class="cls-13" d="M53.27,259.84c-2,0-3.54.85-3.54,1.89s1.58,1.88,3.54,1.88,3.54-.84,3.54-1.88S55.23,259.84,53.27,259.84Z"/><path class="cls-16" d="M53.27,258.85c-2,0-3.54.84-3.54,1.88s1.58,1.88,3.54,1.88,3.54-.84,3.54-1.88S55.23,258.85,53.27,258.85Z"/><path class="cls-13" d="M53.12,259.86c-.53,0-1,.23-1,.52s.44.51,1,.51,1-.23,1-.51S53.65,259.86,53.12,259.86Z"/><path class="cls-26" d="M43.44,218.39c.86.65,5.58,3.78,6.43,4.26s1.77-.65,1.77-.65l-8.2-5.53S42.57,217.74,43.44,218.39Z"/><rect class="cls-13" x="52.15" y="259.84" width="1.92" height="0.53"/><path class="cls-17" d="M53.12,259.33c-.53,0-1,.23-1,.51s.44.52,1,.52,1-.23,1-.52S53.65,259.33,53.12,259.33Z"/><rect class="cls-13" x="52.55" y="222.46" width="1.13" height="37.25"/><path class="cls-13" d="M53.12,259.4c-.31,0-.57.14-.57.31s.26.3.57.3.58-.13.58-.3S53.44,259.4,53.12,259.4Z"/><path class="cls-13" d="M42.82,216.5l10,6.74.88-.78-9-6.28A1.33,1.33,0,0,0,42.82,216.5Z"/><rect class="cls-13" x="215.98" y="357.34" width="7.08" height="1"/><path class="cls-13" d="M219.52,356.46c-2,0-3.54.84-3.54,1.88s1.59,1.88,3.54,1.88,3.55-.84,3.55-1.88S221.48,356.46,219.52,356.46Z"/><path class="cls-27" d="M219.52,355.46c-2,0-3.54.84-3.54,1.88s1.59,1.89,3.54,1.89,3.55-.85,3.55-1.89S221.48,355.46,219.52,355.46Z"/><path class="cls-13" d="M219.37,356.48c-.53,0-1,.23-1,.51s.43.51,1,.51,1-.23,1-.51S219.9,356.48,219.37,356.48Z"/><path class="cls-26" d="M209.69,315c.87.65,5.59,3.78,6.44,4.27s1.76-.66,1.76-.66l-8.2-5.53S208.83,314.36,209.69,315Z"/><rect class="cls-13" x="218.41" y="356.46" width="1.92" height="0.53"/><ellipse class="cls-17" cx="219.37" cy="356.46" rx="0.96" ry="0.51"/><rect class="cls-16" x="218.81" y="319.07" width="1.13" height="37.25"/><path class="cls-16" d="M219.38,356c-.32,0-.57.14-.57.31s.25.3.57.3.57-.13.57-.3S219.69,356,219.38,356Z"/><path class="cls-16" d="M209.08,313.12l10,6.73.89-.78-9-6.28A1.32,1.32,0,0,0,209.08,313.12Z"/><path class="cls-28" d="M42.89,292.88s-.13.55-.45.62a1.07,1.07,0,0,1-.72-.21,11.2,11.2,0,0,1,.4-1.33C42.18,292,43.24,292,42.89,292.88Z"/><path class="cls-28" d="M59.48,302.41s-.13.55-.44.63a1.23,1.23,0,0,1-.72-.16,12,12,0,0,1,.39-1.39C58.77,301.49,59.84,301.48,59.48,302.41Z"/><path class="cls-13" d="M74,286.74l1.91-1.11c.25-.14.45,0,.45.35v.94a1.11,1.11,0,0,1-.45.88L74,288.9c-.25.14-.46,0-.46-.35v-.94A1.08,1.08,0,0,1,74,286.74Z"/><path class="cls-13" d="M76.47,285.78l-.23.21s-.28-.4-.16-.41S76.47,285.78,76.47,285.78Z"/><path class="cls-13" d="M74,289.1s-.34-.05-.43-.22a.41.41,0,0,1,0-.33S74,288.76,74,289.1Z"/><path class="cls-17" d="M74.24,286.88l1.9-1.1c.25-.14.46,0,.46.35v.94a1.08,1.08,0,0,1-.46.87l-1.9,1.11c-.26.14-.46,0-.46-.35v-.94A1.09,1.09,0,0,1,74.24,286.88Z"/><path class="cls-17" d="M74.33,290.63c.5-.37.48-1,.47-1.77,0-.15,0-.3,0-.46a.13.13,0,0,1,.26,0v.46c0,.78,0,1.53-.56,2a26.55,26.55,0,0,1-2.72,1.55h-.06a.13.13,0,0,1-.12-.07.13.13,0,0,1,.06-.17A27.27,27.27,0,0,0,74.33,290.63Z"/><path class="cls-29" d="M50.52,270.63l19.41,11.13a3.63,3.63,0,0,1,1.65,2.06l2.14,6.71L77.09,295a2.85,2.85,0,0,1,.46,1.56v2.54a1.5,1.5,0,0,1-.14.68L50.05,284.08V270.9A.31.31,0,0,1,50.52,270.63Z"/><path class="cls-29" d="M50.49,270.72s-10.84,6.4-10.87,6.4a3.35,3.35,0,0,1-.38-.19l11-6.32Z"/><path class="cls-29" d="M77.41,299.82a1.77,1.77,0,0,1-.46.43s-7.06,4.18-9.49,5.45a1.4,1.4,0,0,1-1.14.13L54.14,287,77,295.43Z"/><path class="cls-16" d="M70.88,282.55l-11,6.33-.94-.8,11-6.32A3.53,3.53,0,0,1,70.88,282.55Z"/><polygon class="cls-17" points="69.94 281.76 58.95 288.08 39.54 276.94 50.52 270.63 69.94 281.76"/><path class="cls-17" d="M77.36,295.56a5.13,5.13,0,0,1,.17.66l-11.07,6.37-.61-1.54,11.24-6S77.3,295.41,77.36,295.56Z"/><path class="cls-13" d="M39.54,276.94,59,288.08a3.58,3.58,0,0,1,1.64,2.06l2.14,6.7,3.37,4.51a2.83,2.83,0,0,1,.47,1.56v3a7.18,7.18,0,0,1-1.81-.71c-5.62-3.15-20.38-11.7-24.57-14.13-.7-.41-1.13-.29-1.13-1.09V277.22A.32.32,0,0,1,39.54,276.94Z"/><path class="cls-30" d="M71.56,287.43c.23.7,1.49,4.16,1.49,4.16l.46-.2a1.1,1.1,0,0,1-.53.78l-8.35,4.88a1.12,1.12,0,0,1-1.64-.62l-1.72-5.32,7.84-4.45C70.62,285.8,71.34,286.73,71.56,287.43Z"/><path class="cls-11" d="M61.67,289.44l8.38-4.8a1.13,1.13,0,0,1,1.64.63l1.79,5.58a1.11,1.11,0,0,1,0,.54l-.46.2s-1.26-3.46-1.49-4.16-.94-1.63-2.45-.77l-7.84,4.45-.11-.34A1.14,1.14,0,0,1,61.67,289.44Z"/><polygon class="cls-16" points="77.09 295.04 66.14 301.4 62.73 296.84 73.72 290.53 77.09 295.04"/><path class="cls-30" d="M60.08,290.8l1.89,6L41.68,285.07a3,3,0,0,1-1-.94l-.86-1.32a1.68,1.68,0,0,1-.28-.95V278l19.12,11A3.13,3.13,0,0,1,60.08,290.8Z"/><path class="cls-28" d="M74.26,300.77c-1.49.85-2.9,1.77-3.79,2.16a1.53,1.53,0,0,1-2-.72l6.8-3.9A2.54,2.54,0,0,1,74.26,300.77Z"/><polygon class="cls-13" points="74.09 292.09 71.23 293.76 70.65 293.01 73.5 291.33 74.09 292.09"/><polygon class="cls-13" points="67.42 295.93 64.55 297.6 63.98 296.85 66.83 295.17 67.42 295.93"/><path class="cls-17" d="M69.11,303.72l-2.54,1.5v-1.93a5.9,5.9,0,0,1,1.33-.64C68.23,302.62,69.11,303.72,69.11,303.72Z"/><path class="cls-17" d="M76.39,297.67l1.16-.69v1.89L75.62,300s.07-1.09.12-1.49S76,297.91,76.39,297.67Z"/><path class="cls-17" d="M72.32,300.31c.28-.16.5,0,.5.37a1.19,1.19,0,0,1-.5,1c-.27.16-.5,0-.5-.38A1.2,1.2,0,0,1,72.32,300.31Z"/><path class="cls-28" d="M61.1,300.76a4.45,4.45,0,0,1,2.31,3.69c-.27-.23-3.81-2.17-4.36-2.48A1.47,1.47,0,0,1,61.1,300.76Z"/><path class="cls-28" d="M61.18,301.31a3.65,3.65,0,0,1,1.89,3.14H59.76a3.94,3.94,0,0,1-.34-1.46C59.39,301.66,60.18,300.9,61.18,301.31Z"/><path class="cls-28" d="M60.42,302.48c0-.91.64.66,1.95,1.35.57.29,1.14.68,1.6.94a1.22,1.22,0,0,1-.72.88l-1.15.51-.62-.42.68-.18A3.76,3.76,0,0,1,60.42,302.48Z"/><path class="cls-31" d="M61,301.31a3.65,3.65,0,0,1,1.88,3.15c0,1.33-.75,2.09-1.76,1.68A3.65,3.65,0,0,1,59.25,303C59.22,301.66,60,300.9,61,301.31Z"/><path class="cls-12" d="M61,302.18a2.37,2.37,0,0,1,1.21,2c0,.86-.49,1.34-1.13,1.08a2.33,2.33,0,0,1-1.21-2C59.89,302.4,60.39,301.92,61,302.18Z"/><path class="cls-17" d="M61.05,302.58a1.74,1.74,0,0,1,.9,1.49c0,.64-.36,1-.84.8a1.74,1.74,0,0,1-.9-1.49C60.19,302.74,60.57,302.38,61.05,302.58Z"/><path class="cls-28" d="M44.57,291.22a4.48,4.48,0,0,1,2.31,3.69c-.27-.23-3.86-2.18-4.41-2.49A1.52,1.52,0,0,1,44.57,291.22Z"/><path class="cls-28" d="M44.65,291.77a3.68,3.68,0,0,1,1.89,3.14H43.23a3.89,3.89,0,0,1-.34-1.45C42.86,292.12,43.64,291.37,44.65,291.77Z"/><path class="cls-28" d="M43.89,293c0-.92.64.65,2,1.34.57.3,1.14.68,1.6.94a1.24,1.24,0,0,1-.72.89l-1.15.5-.62-.41.68-.18A3.75,3.75,0,0,1,43.89,293Z"/><path class="cls-31" d="M44.48,291.77a3.68,3.68,0,0,1,1.89,3.15c0,1.34-.76,2.09-1.76,1.69a3.68,3.68,0,0,1-1.89-3.15C42.69,292.12,43.48,291.37,44.48,291.77Z"/><path class="cls-12" d="M44.51,292.64a2.34,2.34,0,0,1,1.2,2c0,.85-.48,1.34-1.12,1.08a2.34,2.34,0,0,1-1.21-2C43.36,292.87,43.86,292.38,44.51,292.64Z"/><path class="cls-17" d="M44.52,293a1.71,1.71,0,0,1,.89,1.5c0,.63-.36,1-.83.8a1.72,1.72,0,0,1-.9-1.5C43.66,293.21,44,292.85,44.52,293Z"/><path class="cls-17" d="M66.57,305.7l11-6.37s.47-.12.47.92-.31,1.07-.61,1.24c-2,1.15-10,5.78-10.39,6a.82.82,0,0,1-.71,0v-1.2A.69.69,0,0,1,66.57,305.7Z"/><path class="cls-32" d="M66.57,305.7a.69.69,0,0,0-.26.55v1.2a2.08,2.08,0,0,1-.32-.14c-.51-.27-2.15-1.23-2.31-1.35-.43-.31-.34-2-.34-2Z"/><polygon class="cls-29" points="75.21 302.36 69.53 305.68 69.53 304.47 75.21 301.19 75.21 302.36"/><path class="cls-12" d="M59,295.62l1.91-1.1c.25-.15.46,0,.46.34v.95a1.1,1.1,0,0,1-.46.87L59,297.78c-.25.15-.46,0-.46-.34v-.95A1.1,1.1,0,0,1,59,295.62Z"/><path class="cls-12" d="M61.49,294.67l-.23.2s-.28-.4-.15-.41S61.49,294.67,61.49,294.67Z"/><path class="cls-12" d="M59.05,298s-.33-.05-.42-.21a.46.46,0,0,1,0-.34S59.07,297.64,59.05,298Z"/><path class="cls-17" d="M59.26,295.77l1.91-1.11c.25-.14.45,0,.45.35V296a1.11,1.11,0,0,1-.45.88l-1.91,1.1c-.25.14-.46,0-.46-.35v-.94A1.08,1.08,0,0,1,59.26,295.77Z"/><path class="cls-17" d="M60.38,296.57h0a.19.19,0,0,1,.19.19c0,1.15.1,1.4.18,1.45s.16,0,.46-.15l1.31-.75a.18.18,0,0,1,.26.07.19.19,0,0,1-.07.26l-1.3.75a1.37,1.37,0,0,1-.61.22.47.47,0,0,1-.25-.07c-.3-.18-.4-.68-.36-1.79A.18.18,0,0,1,60.38,296.57Z"/><path class="cls-32" d="M59,302.52a.44.44,0,0,1-.63.36l-.13-.06c-.84-.46-10-5.78-10.64-6.16s-.63-1.68-.74-2.25l12.35,7.14A8.91,8.91,0,0,0,59,302.52Z"/><path class="cls-32" d="M42.62,292a8.36,8.36,0,0,0-.22,1,.43.43,0,0,1-.63.36l-.13-.06c-.84-.46-1.22-.75-1.89-1.12s-.69-1.67-.69-2.21Z"/><rect class="cls-13" x="55.25" y="286.52" width="0.38" height="8.5"/><rect class="cls-13" x="48.98" y="282.75" width="0.38" height="8.5"/><rect class="cls-13" x="43.49" y="279.72" width="0.38" height="7.58"/><path class="cls-32" d="M63.44,301.38a6.62,6.62,0,0,1,.92,1L40.24,288.25a3.42,3.42,0,0,1,1.66.52Z"/><polygon class="cls-28" points="57.36 283.93 53.26 281.58 57.29 279.35 57.36 283.93"/><polygon class="cls-31" points="63.58 280.31 57.36 283.93 54.14 279.25 60.37 275.63 63.58 280.31"/><path class="cls-30" d="M62.29,280.45a.39.39,0,0,1-.1.08l-4.1,2.38a.57.57,0,0,1-.76-.17l-2-2.87a16.28,16.28,0,0,1,4.16-1.54C60.46,278.27,61.58,279.52,62.29,280.45Z"/><path class="cls-11" d="M55.54,279l4.09-2.38a.58.58,0,0,1,.76.17l2,2.89a.55.55,0,0,1-.08.74c-.71-.93-1.83-2.18-2.77-2.12a16.28,16.28,0,0,0-4.16,1.54h0A.58.58,0,0,1,55.54,279Z"/><polygon class="cls-17" points="12.32 284.74 11.08 285.45 18.96 290.06 20.19 289.34 12.32 284.74"/><polygon class="cls-17" points="29.27 294.6 28.04 295.32 35.91 299.92 37.15 299.21 29.27 294.6"/><polygon class="cls-17" points="45.2 303.7 43.96 304.41 51.84 309.02 53.07 308.3 45.2 303.7"/><polygon class="cls-17" points="62.49 313.75 61.25 314.46 69.13 319.06 70.36 318.35 62.49 313.75"/><polygon class="cls-17" points="79.56 323.57 78.33 324.29 86.2 328.89 87.44 328.18 79.56 323.57"/><polygon class="cls-17" points="96.52 333.44 95.29 334.15 103.16 338.75 104.4 338.04 96.52 333.44"/><polygon class="cls-17" points="112.44 342.53 111.21 343.25 119.08 347.85 120.32 347.14 112.44 342.53"/><polygon class="cls-17" points="129.74 352.58 128.5 353.29 136.38 357.9 137.61 357.18 129.74 352.58"/><polygon class="cls-17" points="147.23 362.65 145.99 363.37 153.87 367.97 155.1 367.26 147.23 362.65"/><polygon class="cls-17" points="164.19 372.52 162.95 373.23 170.83 377.84 172.06 377.12 164.19 372.52"/><polygon class="cls-17" points="180.11 381.62 178.88 382.33 185.89 386.4 187.13 385.69 180.11 381.62"/><polygon class="cls-17" points="197.4 391.66 196.17 392.38 204.04 396.98 205.28 396.27 197.4 391.66"/></g></g></svg>